<svg width="14" height="14" viewBox="0 0 14 14" fill="none" xmlns="http://www.w3.org/2000/svg">
<path d="M12.3596 5.12156C11.9262 5.12156 11.5627 5.47114 11.5627 5.91858V7.07918C11.5627 9.8334 9.32554 12.0705 6.57132 12.0705C3.8171 12.0705 1.5799 9.8334 1.5799 7.07904C1.5799 4.33868 3.8171 2.10162 6.55732 2.10162H7.61992C8.05336 2.10162 8.41694 1.75218 8.41694 1.30474C8.41694 0.857302 8.06736 0.507862 7.61992 0.507862H6.57132C2.93608 0.493862 0 3.44394 0 7.07904C0 10.7003 2.95008 13.6504 6.57132 13.6504C10.1926 13.6504 13.1426 10.7003 13.1426 7.07904V5.91858C13.1426 5.48514 12.7931 5.12156 12.3596 5.12156Z" fill="#5BB4FF"/>
<path d="M5.18663 5.1213C4.96291 4.85572 4.57147 4.79986 4.26389 4.98158C3.92831 5.1913 3.81645 5.63874 4.02617 5.97418L5.77393 8.99426C5.84379 9.10626 5.94165 9.20398 6.05351 9.28784C6.48695 9.58156 7.07411 9.4697 7.38169 9.03626L7.40969 8.99426L12.443 1.4862C12.6527 1.17862 12.5968 0.745176 12.2893 0.507596C11.9817 0.255876 11.5202 0.311736 11.2827 0.633316L6.55681 6.67334L5.18663 5.1213Z" fill="#5BB4FF"/>
</svg>
