<svg width="48" height="48" viewBox="0 0 48 48" fill="none" xmlns="http://www.w3.org/2000/svg">
<rect width="48" height="48" rx="24" fill="#E58640" fill-opacity="0.1"/>
<path d="M32.3846 13H16.2308C15.3383 13 14.6154 13.7032 14.6154 14.5714V16.1429H13.8077C13.3618 16.1429 13 16.4949 13 16.9286C13 17.3623 13.3618 17.7143 13.8077 17.7143C15.2575 17.7143 12.8829 17.7143 16.2308 17.7143C16.6766 17.7143 17.0385 18.0663 17.0385 18.5C17.0385 18.9337 16.6766 19.2857 16.2308 19.2857H14.6154V28.7143H13.8077C13.3618 28.7143 13 29.0663 13 29.5C13 29.9337 13.3618 30.2857 13.8077 30.2857C15.2575 30.2857 12.8829 30.2857 16.2308 30.2857C16.6766 30.2857 17.0385 30.6377 17.0385 31.0714C17.0385 31.5051 16.6766 31.8571 16.2308 31.8571H14.6154V33.4286C14.6154 34.2968 15.3383 35 16.2308 35H32.3846C33.2771 35 34 34.2968 34 33.4286V14.5714C34 13.7032 33.2771 13 32.3846 13ZM24.3077 16.9286C26.0919 16.9286 27.5385 18.3358 27.5385 20.0714C27.5385 21.8071 26.0919 23.2143 24.3077 23.2143C22.5235 23.2143 21.0769 21.8071 21.0769 20.0714C21.0769 18.3358 22.5235 16.9286 24.3077 16.9286ZM29.1538 30.2857H19.4615V28.7143C19.4615 26.1104 21.631 24 24.3077 24C26.9844 24 29.1538 26.1104 29.1538 28.7143V30.2857Z" fill="#E58640"/>
</svg>
