<svg width="48" height="48" viewBox="0 0 48 48" fill="none" xmlns="http://www.w3.org/2000/svg">
<rect width="48" height="48" rx="24" fill="#448CE3" fill-opacity="0.2"/>
<path d="M13.6752 30.4624H25.8864C25.8672 30.304 25.8624 30.1456 25.8624 29.9824C25.8624 26.9248 28.3536 24.4384 31.4112 24.4384C31.5744 24.4384 31.7328 24.4432 31.8912 24.4624V20.7856C29.9712 21.832 26.0976 22.5616 23.8992 22.7392V23.9968C23.8992 24.2608 23.6832 24.4768 23.4192 24.4768H20.472C20.2032 24.4768 19.992 24.2608 19.992 23.9968V22.7392C17.7936 22.5616 13.92 21.832 12 20.7856V28.7872C12 29.7136 12.7488 30.4624 13.6752 30.4624Z" fill="#448CE3"/>
<path d="M20.9512 21.1357H22.9384V23.5165H20.9512V21.1357Z" fill="#448CE3"/>
<path d="M19.992 20.656C19.992 20.392 20.2032 20.176 20.472 20.176H23.4192C23.6832 20.176 23.8992 20.392 23.8992 20.656V21.7792C26.7312 21.5536 30.7632 20.5648 31.8912 19.6432V17.7856C31.8912 16.8592 31.1376 16.1104 30.216 16.1104H26.7648V14.3008C26.7648 13.5808 26.1792 13 25.464 13H18.4224C17.7072 13 17.1264 13.5808 17.1264 14.3008V16.1104H13.6752C12.7488 16.1104 12 16.8592 12 17.7856V19.648C13.128 20.5648 17.16 21.5536 19.992 21.7792V20.656ZM18.0864 14.3008C18.0864 14.1136 18.2352 13.96 18.4224 13.96H25.464C25.6512 13.96 25.8048 14.1136 25.8048 14.3008V16.1104H18.0864V14.3008ZM31.4112 25.3984C28.8816 25.3984 26.8224 27.4528 26.8224 29.9824C26.8224 32.5168 28.8816 34.5712 31.4112 34.5712C33.9408 34.5712 36 32.5168 36 29.9824C36 27.4528 33.9408 25.3984 31.4112 25.3984ZM33.4656 30.4624H31.4064C31.1424 30.4624 30.9264 30.2512 30.9264 29.9824V27.7216C30.9264 27.4576 31.1424 27.2416 31.4064 27.2416C31.6752 27.2416 31.8864 27.4576 31.8864 27.7216V29.5024H33.4656C33.7296 29.5024 33.9456 29.7184 33.9456 29.9824C33.9456 30.2512 33.7296 30.4624 33.4656 30.4624Z" fill="#448CE3"/>
</svg>
