<svg width="48" height="48" viewBox="0 0 48 48" fill="none" xmlns="http://www.w3.org/2000/svg">
<rect width="48" height="48" rx="24" fill="#359AA0" fill-opacity="0.1"/>
<g clip-path="url(#clip0_1169_6936)">
<path d="M19.0312 26.1094C19.0312 24.5583 17.7698 23.2969 16.2188 23.2969C14.6677 23.2969 13.4062 24.5583 13.4062 26.1094C13.4062 27.6605 14.6677 28.9219 16.2188 28.9219C17.7698 28.9219 19.0312 27.6605 19.0312 26.1094ZM26.8125 14.8125C26.8125 13.2614 25.5511 12 24 12C22.4489 12 21.1875 13.2614 21.1875 14.8125C21.1875 16.3636 22.4489 17.625 24 17.625C25.5511 17.625 26.8125 16.3636 26.8125 14.8125ZM34.5938 26.1094C34.5938 24.5583 33.3323 23.2969 31.7812 23.2969C30.2302 23.2969 28.9688 24.5583 28.9688 26.1094C28.9688 27.6605 30.2302 28.9219 31.7812 28.9219C33.3323 28.9219 34.5938 27.6605 34.5938 26.1094Z" fill="#359AA0"/>
<path d="M36 33.1406C36 30.8143 34.1076 28.9219 31.7812 28.9219C30.5894 28.9219 29.5166 29.423 28.7489 30.2203L24.7031 27.8206V24.7031H27.5156C27.9042 24.7031 28.2188 24.3886 28.2188 24V21.8438C28.2188 19.5174 26.3264 17.625 24 17.625C21.6736 17.625 19.7812 19.5174 19.7812 21.8438V24C19.7812 24.3886 20.0958 24.7031 20.4844 24.7031H23.2969V27.8205L19.2511 30.2203C18.4834 29.423 17.4106 28.9219 16.2188 28.9219C13.8924 28.9219 12 30.8143 12 33.1406V35.2969C12 35.6855 12.3145 36 12.7031 36H19.7344C20.123 36 20.4375 35.6855 20.4375 35.2969V33.1406C20.4375 32.5124 20.2905 31.9213 20.0431 31.3852L24 29.0387L27.9569 31.3853C27.7097 31.9213 27.5625 32.5124 27.5625 33.1406V35.2969C27.5625 35.6855 27.877 36 28.2656 36H35.2969C35.6855 36 36 35.6855 36 35.2969V33.1406Z" fill="#359AA0"/>
</g>
<defs>
<clipPath id="clip0_1169_6936">
<rect width="24" height="24" fill="white" transform="translate(12 12)"/>
</clipPath>
</defs>
</svg>
