<svg width="48" height="48" viewBox="0 0 48 48" fill="none" xmlns="http://www.w3.org/2000/svg">
<rect width="48" height="48" rx="24" fill="#359AA0" fill-opacity="0.1"/>
<path fill-rule="evenodd" clip-rule="evenodd" d="M23.9993 12C28.5425 12 32.2252 15.6827 32.2252 20.2259C32.2252 27.5664 23.9993 34.053 23.9993 34.053C23.9993 34.053 15.7734 27.5664 15.7734 20.2259C15.7734 15.6827 19.4561 12 23.9993 12ZM20.5382 31.8385C17.2448 32.1627 14.9272 32.9357 14.9272 33.8378C14.9272 35.0319 18.9889 36 23.9992 36C29.0096 36 33.0712 35.0319 33.0712 33.8378C33.0712 32.9357 30.7537 32.1627 27.4603 31.8385C26.3698 33.0206 25.2583 34.048 23.9992 35.041C22.7401 34.048 21.6286 33.0206 20.5382 31.8385ZM27.3749 22.8737C27.1583 21.2064 25.7231 19.9077 23.9993 19.9077C22.2755 19.9077 20.8403 21.2064 20.6237 22.8737C20.6164 22.9284 20.6209 22.9841 20.6368 23.037C20.6528 23.0898 20.68 23.1387 20.7164 23.1802C20.7529 23.2216 20.7978 23.2548 20.8482 23.2775C20.8985 23.3002 20.9532 23.3118 21.0084 23.3115H26.9902C27.0455 23.3117 27.1001 23.3001 27.1504 23.2775C27.2008 23.2548 27.2457 23.2216 27.2822 23.1801C27.3186 23.1386 27.3458 23.0898 27.3617 23.037C27.3777 22.9841 27.3822 22.9284 27.3749 22.8737ZM23.9993 15.7436C22.9833 15.7436 22.1597 16.5672 22.1597 17.5832C22.1597 18.5992 22.9833 19.4228 23.9993 19.4228C25.0153 19.4228 25.8389 18.5992 25.8389 17.5832C25.8389 16.5672 25.0153 15.7436 23.9993 15.7436ZM23.9993 14.1061C20.618 14.1061 17.8769 16.8472 17.8769 20.2285C17.8769 23.6098 20.618 26.351 23.9993 26.351C27.3806 26.351 30.1217 23.6098 30.1217 20.2285C30.1217 16.8472 27.3806 14.1061 23.9993 14.1061Z" fill="#359AA0"/>
</svg>
