<svg width="48" height="48" viewBox="0 0 48 48" fill="none" xmlns="http://www.w3.org/2000/svg">
<rect width="48" height="48" rx="24" fill="#F0679F" fill-opacity="0.2"/>
<path d="M16.4974 21C16.1694 21 15.8447 21.0646 15.5417 21.1901C15.2387 21.3156 14.9633 21.4995 14.7314 21.7314C14.4995 21.9633 14.3156 22.2387 14.1901 22.5417C14.0646 22.8447 14 23.1694 14 23.4974C14 23.8254 14.0646 24.1501 14.1901 24.4531C14.3156 24.7561 14.4996 25.0314 14.7315 25.2633C14.9634 25.4952 15.2387 25.6791 15.5417 25.8046C15.8447 25.9301 16.1695 25.9947 16.4974 25.9947C17.1597 25.9947 17.7949 25.7316 18.2632 25.2632C18.7316 24.7949 18.9947 24.1597 18.9947 23.4974C18.9947 23.1695 18.9301 22.8447 18.8046 22.5417C18.6791 22.2387 18.4952 21.9634 18.2633 21.7315C18.0314 21.4996 17.7561 21.3156 17.4531 21.1901C17.1501 21.0646 16.8254 21 16.4974 21ZM23.9862 21C23.6582 21 23.3335 21.0646 23.0305 21.1902C22.7275 21.3157 22.4523 21.4996 22.2204 21.7315C21.9885 21.9635 21.8046 22.2388 21.6791 22.5417C21.5536 22.8447 21.4891 23.1695 21.4891 23.4974C21.4891 24.1597 21.7522 24.7949 22.2204 25.2632C22.6887 25.7315 23.3239 25.9946 23.9862 25.9947C24.6485 25.9947 25.2837 25.7316 25.752 25.2632C26.2203 24.7949 26.4834 24.1597 26.4834 23.4974C26.4834 23.1695 26.4189 22.8447 26.2934 22.5417C26.1679 22.2387 25.9839 21.9634 25.752 21.7315C25.5201 21.4996 25.2448 21.3156 24.9419 21.1901C24.6389 21.0646 24.3141 21 23.9862 21ZM31.4751 21C31.1471 21 30.8224 21.0646 30.5194 21.1901C30.2164 21.3156 29.9411 21.4996 29.7092 21.7315C29.4773 21.9634 29.2934 22.2387 29.1679 22.5417C29.0424 22.8447 28.9778 23.1695 28.9778 23.4974C28.9778 24.1597 29.2409 24.7949 29.7093 25.2632C30.1776 25.7316 30.8128 25.9947 31.4751 25.9947C31.803 25.9947 32.1278 25.9301 32.4308 25.8047C32.7339 25.6792 33.0092 25.4952 33.2411 25.2634C33.473 25.0315 33.657 24.7561 33.7825 24.4531C33.9081 24.1501 33.9727 23.8254 33.9727 23.4974C33.9727 23.1694 33.9081 22.8447 33.7826 22.5416C33.6571 22.2386 33.4731 21.9633 33.2412 21.7314C33.0092 21.4995 32.7339 21.3155 32.4309 21.19C32.1278 21.0645 31.8031 21 31.4751 21Z" fill="#F0679F"/>
</svg>
