<svg width="48" height="48" viewBox="0 0 48 48" fill="none" xmlns="http://www.w3.org/2000/svg">
<rect width="48" height="48" rx="24" fill="#448CE3" fill-opacity="0.1"/>
<path fill-rule="evenodd" clip-rule="evenodd" d="M22.2 14.25H22.167C20.935 14.25 19.964 14.25 19.183 14.314C18.387 14.379 17.721 14.514 17.117 14.822C16.1288 15.3254 15.3254 16.1288 14.822 17.117C14.514 17.721 14.379 18.387 14.314 19.183C14.25 19.964 14.25 20.935 14.25 22.167V25.833C14.25 27.065 14.25 28.036 14.314 28.817C14.379 29.613 14.514 30.279 14.822 30.884C15.3256 31.8718 16.129 32.6749 17.117 33.178C17.721 33.486 18.387 33.621 19.183 33.686C19.964 33.75 20.935 33.75 22.167 33.75H25.833C27.065 33.75 28.036 33.75 28.817 33.686C29.613 33.621 30.279 33.486 30.884 33.178C31.8718 32.6744 32.6748 31.871 33.178 30.883C33.486 30.279 33.621 29.613 33.686 28.817C33.75 28.036 33.75 27.065 33.75 25.833V22.167C33.75 20.935 33.75 19.964 33.686 19.183C33.621 18.387 33.486 17.721 33.178 17.117C32.6746 16.1288 31.8712 15.3254 30.883 14.822C30.279 14.514 29.613 14.379 28.817 14.314C28.036 14.25 27.065 14.25 25.833 14.25H25.8H22.2ZM15.803 28.622L15.809 28.695C15.866 29.399 15.976 29.845 16.159 30.203C16.5187 30.9083 17.0924 31.4817 17.798 31.841C18.155 32.024 18.601 32.134 19.305 32.191C20.018 32.249 20.928 32.25 22.2 32.25H25.8C27.072 32.25 27.982 32.25 28.694 32.191C29.398 32.134 29.844 32.024 30.202 31.841C30.9081 31.4816 31.4822 30.9079 31.842 30.202C32.024 29.844 32.134 29.398 32.192 28.694L32.197 28.622L31.562 28.001L31.541 27.98C31.2313 27.6675 30.9101 27.3666 30.578 27.078C30.29 26.838 29.993 26.64 29.638 26.527C29.093 26.3525 28.507 26.3525 27.962 26.527C27.607 26.64 27.31 26.839 27.022 27.078C26.746 27.308 26.433 27.614 26.059 27.98L26.046 27.993L24.393 26.083L24.373 26.059C24.003 25.632 23.695 25.276 23.421 25.008C23.135 24.728 22.837 24.493 22.468 24.351C21.9046 24.1339 21.2854 24.1082 20.706 24.278C20.326 24.388 20.009 24.598 19.702 24.853C19.406 25.097 19.07 25.426 18.666 25.821L18.643 25.843L15.803 28.622ZM28 22C28.5304 22 29.0391 21.7893 29.4142 21.4142C29.7893 21.0391 30 20.5304 30 20C30 19.4696 29.7893 18.9609 29.4142 18.5858C29.0391 18.2107 28.5304 18 28 18C27.4696 18 26.9609 18.2107 26.5858 18.5858C26.2107 18.9609 26 19.4696 26 20C26 20.5304 26.2107 21.0391 26.5858 21.4142C26.9609 21.7893 27.4696 22 28 22Z" fill="#448CE3"/>
</svg>
