<svg width="48" height="48" viewBox="0 0 48 48" fill="none" xmlns="http://www.w3.org/2000/svg">
<rect width="48" height="48" rx="24" fill="#AC68FF" fill-opacity="0.2"/>
<g clip-path="url(#clip0_1182_6987)">
<path d="M26.8125 27.5156C27.2008 27.5156 27.5156 27.2008 27.5156 26.8125C27.5156 26.4242 27.2008 26.1094 26.8125 26.1094C26.4242 26.1094 26.1094 26.4242 26.1094 26.8125C26.1094 27.2008 26.4242 27.5156 26.8125 27.5156Z" fill="#AC68FF"/>
<path d="M36 26.8125C36 21.9163 31.9672 17.6719 26.8125 17.6719C21.7725 17.6719 17.6719 21.7725 17.6719 26.8125C17.6719 31.948 21.8982 36 26.8125 36C28.6966 36 30.5616 35.3578 32.1093 34.2688L36 36L34.2695 32.1093C35.3571 30.5609 36 28.696 36 26.8125ZM29.625 28.9219C29.0828 28.9219 28.5928 28.7106 28.2188 28.3732C27.8447 28.7106 27.3547 28.9219 26.8125 28.9219C25.6493 28.9219 24.7031 27.9757 24.7031 26.8125C24.7031 25.6493 25.6493 24.7031 26.8125 24.7031C27.9757 24.7031 28.9219 25.6493 28.9219 26.8125C28.9219 27.2004 29.2377 27.5156 29.625 27.5156C30.0123 27.5156 30.3281 27.2004 30.3281 26.8125C30.3281 24.8741 28.7516 23.2969 26.8125 23.2969C24.8734 23.2969 23.2969 24.8741 23.2969 26.8125C23.2969 28.7509 24.8734 30.3281 26.8125 30.3281V30.3288H26.8166C27.4291 30.3288 28.0361 30.1661 28.5703 29.8571L29.2734 31.0752C28.525 31.5071 27.6763 31.7351 26.8166 31.7351H26.8125V31.7344C24.0989 31.7344 21.8906 29.5261 21.8906 26.8125C21.8906 24.0989 24.0989 21.8906 26.8125 21.8906C29.5261 21.8906 31.7344 24.0989 31.7344 26.8125C31.7344 27.9757 30.7882 28.9219 29.625 28.9219Z" fill="#AC68FF"/>
<path d="M16.2656 26.8125C16.2656 20.9966 20.9966 16.2656 26.8125 16.2656C27.5665 16.2656 28.3034 16.373 29.0275 16.5305C27.4195 13.7932 24.4986 12 21.1875 12C16.1475 12 12 16.1475 12 21.1875C12 23.071 12.6429 24.9359 13.7305 26.4843L12 30.375L15.8894 28.6445C16.0944 28.7895 16.3154 28.8969 16.5285 29.0232C16.3724 28.3034 16.2656 27.5675 16.2656 26.8125Z" fill="#AC68FF"/>
</g>
<defs>
<clipPath id="clip0_1182_6987">
<rect width="24" height="24" fill="white" transform="translate(12 12)"/>
</clipPath>
</defs>
</svg>
